<svg width="360" height="69" viewBox="0 0 360 69" fill="none" xmlns="http://www.w3.org/2000/svg">
<path fill-rule="evenodd" clip-rule="evenodd" d="M34.3239 68.3799C53.2804 68.3799 68.6477 53.0725 68.6477 34.1899C68.6477 15.3074 53.2804 0 34.3239 0C15.3673 0 0 15.3074 0 34.1899C0 53.0725 15.3673 68.3799 34.3239 68.3799ZM34.3239 61.5419C49.4891 61.5419 61.7829 49.296 61.7829 34.1899C61.7829 19.0839 49.4891 6.83799 34.3239 6.83799C19.1586 6.83799 6.86477 19.0839 6.86477 34.1899C6.86477 49.296 19.1586 61.5419 34.3239 61.5419ZM31.6421 37.162L28.1225 38.6326C27.54 38.876 27.2657 39.5439 27.51 40.1243C27.5656 40.2565 27.6457 40.3769 27.7461 40.4795L41.4571 53.9032C41.8982 54.3537 42.6223 54.3627 43.0745 53.9232C43.3011 53.7028 43.426 53.3988 43.4193 53.0833L43.4185 33.931C43.4052 33.3018 42.8824 32.8024 42.2509 32.8157C42.1072 32.8187 41.9653 32.8487 41.8327 32.9041L38.3151 34.3739C38.2456 35.8642 37.3359 37.2546 35.8632 37.8699C34.3905 38.4853 32.7576 38.1572 31.6421 37.162ZM99.0243 19.1464C106.69 19.1464 112.983 25.6994 112.983 34.1899C112.983 42.6804 106.69 49.2335 99.0243 49.2335C94.8483 49.2335 91.8163 47.695 89.7569 45.0737V59.8324H82.3773V19.9441H89.7569V23.3061C91.8163 20.6849 94.8483 19.1464 99.0243 19.1464ZM97.6514 42.2246C102.228 42.2246 105.603 38.9765 105.603 34.1899C105.603 29.4033 102.228 26.1553 97.6514 26.1553C93.132 26.1553 89.7569 29.4033 89.7569 34.1899C89.7569 38.9765 93.132 42.2246 97.6514 42.2246ZM131.804 49.2335C123.394 49.2335 116.701 42.6804 116.701 34.1899C116.701 25.6994 123.394 19.1464 131.804 19.1464C140.213 19.1464 146.963 25.6994 146.963 34.1899C146.963 42.6804 140.213 49.2335 131.804 49.2335ZM131.804 42.0536C136.208 42.0536 139.584 38.8056 139.584 34.1899C139.584 29.5743 136.208 26.3263 131.804 26.3263C127.456 26.3263 124.081 29.5743 124.081 34.1899C124.081 38.8056 127.456 42.0536 131.804 42.0536ZM151.597 48.4357H158.977V6.83799H151.597V48.4357ZM186.321 19.9441H193.701V48.4357H186.321V45.0737C184.262 47.638 181.173 49.2335 176.997 49.2335C169.388 49.2335 163.096 42.6804 163.096 34.1899C163.096 25.6994 169.388 19.1464 176.997 19.1464C181.173 19.1464 184.262 20.7419 186.321 23.3061V19.9441ZM178.37 42.2246C182.946 42.2246 186.321 38.9765 186.321 34.1899C186.321 29.4033 182.946 26.1553 178.37 26.1553C173.85 26.1553 170.475 29.4033 170.475 34.1899C170.475 38.9765 173.85 42.2246 178.37 42.2246ZM207.774 24.8447V19.9441H200.394V48.4357H207.774V34.8167C207.774 28.8335 212.636 27.124 216.469 27.5799V19.3743C212.865 19.3743 209.261 20.9698 207.774 24.8447ZM227.567 28.0357C227.567 26.4972 229.055 25.6994 230.885 25.6994C233.002 25.6994 234.604 26.7821 235.462 28.6056L241.754 25.1866C239.523 21.2547 235.519 19.1464 230.885 19.1464C224.993 19.1464 220.016 22.3944 220.016 28.2067C220.016 38.2357 234.775 35.9564 234.775 40.1162C234.775 41.7687 233.173 42.5665 230.828 42.5665C227.968 42.5665 226.023 41.1989 225.222 38.8626L218.815 42.4525C220.874 46.8402 225.107 49.2335 230.828 49.2335C236.949 49.2335 242.326 46.2704 242.326 40.1162C242.326 29.6313 227.567 32.2525 227.567 28.0357ZM263.722 27.01V19.9441H257.257V11.9665L249.878 14.1888V19.9441H244.901V27.01H249.878V38.8626C249.878 46.5553 253.367 49.5754 263.722 48.4357V41.7687C259.488 41.9966 257.257 41.9397 257.257 38.8626V27.01H263.722ZM275.621 37.21C276.65 40.9709 279.797 42.5665 283.687 42.5665C286.547 42.5665 288.835 41.3698 290.094 39.7173L296.043 43.1363C293.355 47.0112 289.064 49.2335 283.572 49.2335C273.962 49.2335 267.898 42.6804 267.898 34.1899C267.898 25.6994 274.019 19.1464 283 19.1464C291.467 19.1464 297.473 25.8134 297.473 34.1899C297.473 35.2726 297.359 36.2413 297.187 37.21H275.621ZM275.506 31.5117H290.094C289.178 27.4089 286.089 25.7564 283 25.7564C279.053 25.7564 276.364 27.8648 275.506 31.5117ZM319.269 19.1464C326.935 19.1464 333.227 25.6994 333.227 34.1899C333.227 42.6804 326.935 49.2335 319.269 49.2335C315.093 49.2335 312.061 47.695 310.002 45.0737V59.8324H302.622V19.9441H310.002V23.3061C312.061 20.6849 315.093 19.1464 319.269 19.1464ZM317.896 42.2246C322.473 42.2246 325.848 38.9765 325.848 34.1899C325.848 29.4033 322.473 26.1553 317.896 26.1553C313.377 26.1553 310.002 29.4033 310.002 34.1899C310.002 38.9765 313.377 42.2246 317.896 42.2246ZM345.241 28.0357C345.241 26.4972 346.728 25.6994 348.559 25.6994C350.675 25.6994 352.277 26.7821 353.135 28.6056L359.428 25.1866C357.197 21.2547 353.192 19.1464 348.559 19.1464C342.666 19.1464 337.69 22.3944 337.69 28.2067C337.69 38.2357 352.449 35.9564 352.449 40.1162C352.449 41.7687 350.847 42.5665 348.502 42.5665C345.641 42.5665 343.696 41.1989 342.895 38.8626L336.488 42.4525C338.548 46.8402 342.781 49.2335 348.502 49.2335C354.623 49.2335 360 46.2704 360 40.1162C360 29.6313 345.241 32.2525 345.241 28.0357Z" fill="white"/>
<path fill-rule="evenodd" clip-rule="evenodd" d="M40.5053 29.7492L36.9857 31.2198C35.8702 30.2246 34.2373 29.8965 32.7646 30.5119C31.2919 31.1272 30.3822 32.5176 30.3127 34.0079L26.7951 35.4777C26.6625 35.5331 26.5206 35.5631 26.3769 35.5661C25.7454 35.5794 25.2226 35.0801 25.2093 34.4508L25.2085 15.2985C25.2018 14.983 25.3267 14.679 25.5533 14.4586C26.0055 14.0191 26.7296 14.0281 27.1707 14.4786L40.8817 27.9023C40.9821 28.0049 41.0622 28.1253 41.1178 28.2575C41.3621 28.8379 41.0879 29.5058 40.5053 29.7492Z" fill="white"/>
</svg>
